
            <svg id="trend-chart" width="660" height="400" title="Stack Overflow Trends Chart" version="1.1" xmlns="http://www.w3.org/2000/svg"><g></g><g class="chart-area" transform="translate(100, 20)"><g transform="translate(0,300)" fill="none" font-size="10" font-family="sans-serif" text-anchor="middle"><path class="domain" stroke="#000" d="M0.5,6V0.5H410.5V6"></path><g class="tick" opacity="1" transform="translate(13.648077620602104,0)"><line stroke="#000" y2="6" x1="0.5" x2="0.5"></line><text fill="#000" y="9" x="0.5" dy="0.71em" style="font-size: 12px;">2009</text></g><g class="tick" opacity="1" transform="translate(46.216086325716354,0)"><line stroke="#000" y2="6" x1="0.5" x2="0.5"></line><text fill="#000" y="9" x="0.5" dy="0.71em" style="font-size: 12px;">2010</text></g><g class="tick" opacity="1" transform="translate(78.78409503083061,0)"><line stroke="#000" y2="6" x1="0.5" x2="0.5"></line><text fill="#000" y="9" x="0.5" dy="0.71em" style="font-size: 12px;">2011</text></g><g class="tick" opacity="1" transform="translate(111.35210373594487,0)"><line stroke="#000" y2="6" x1="0.5" x2="0.5"></line><text fill="#000" y="9" x="0.5" dy="0.71em" style="font-size: 12px;">2012</text></g><g class="tick" opacity="1" transform="translate(144.009339862169,0)"><line stroke="#000" y2="6" x1="0.5" x2="0.5"></line><text fill="#000" y="9" x="0.5" dy="0.71em" style="font-size: 12px;">2013</text></g><g class="tick" opacity="1" transform="translate(176.57734856728328,0)"><line stroke="#000" y2="6" x1="0.5" x2="0.5"></line><text fill="#000" y="9" x="0.5" dy="0.71em" style="font-size: 12px;">2014</text></g><g class="tick" opacity="1" transform="translate(209.14535727239755,0)"><line stroke="#000" y2="6" x1="0.5" x2="0.5"></line><text fill="#000" y="9" x="0.5" dy="0.71em" style="font-size: 12px;">2015</text></g><g class="tick" opacity="1" transform="translate(241.71336597751178,0)"><line stroke="#000" y2="6" x1="0.5" x2="0.5"></line><text fill="#000" y="9" x="0.5" dy="0.71em" style="font-size: 12px;">2016</text></g><g class="tick" opacity="1" transform="translate(274.37060210373596,0)"><line stroke="#000" y2="6" x1="0.5" x2="0.5"></line><text fill="#000" y="9" x="0.5" dy="0.71em" style="font-size: 12px;">2017</text></g><g class="tick" opacity="1" transform="translate(306.9386108088502,0)"><line stroke="#000" y2="6" x1="0.5" x2="0.5"></line><text fill="#000" y="9" x="0.5" dy="0.71em" style="font-size: 12px;">2018</text></g><g class="tick" opacity="1" transform="translate(339.50661951396444,0)"><line stroke="#000" y2="6" x1="0.5" x2="0.5"></line><text fill="#000" y="9" x="0.5" dy="0.71em" style="font-size: 12px;">2019</text></g><g class="tick" opacity="1" transform="translate(372.0783460282916,0)"><line stroke="#000" y2="6" x1="0.5" x2="0.5"></line><text fill="#000" y="9" x="0.5" dy="0.71em" style="font-size: 12px;">2020</text></g><g class="tick" opacity="1" transform="translate(404.7355821545158,0)"><line stroke="#000" y2="6" x1="0.5" x2="0.5"></line><text fill="#000" y="9" x="0.5" dy="0.71em" style="font-size: 12px;">2021</text></g></g><g class="grid-lines" transform="translate(0,300)" fill="none" font-size="10" font-family="sans-serif" text-anchor="middle"><path class="domain" stroke="#000" d="M0.5,-300V0.5H410.5V-300"></path><g class="tick" opacity="1" transform="translate(13.648077620602104,0)"><line stroke="#000" y2="-300" x1="0.5" x2="0.5" style="stroke: #ccc; fill: none;"></line></g><g class="tick" opacity="1" transform="translate(46.216086325716354,0)"><line stroke="#000" y2="-300" x1="0.5" x2="0.5" style="stroke: #ccc; fill: none;"></line></g><g class="tick" opacity="1" transform="translate(78.78409503083061,0)"><line stroke="#000" y2="-300" x1="0.5" x2="0.5" style="stroke: #ccc; fill: none;"></line></g><g class="tick" opacity="1" transform="translate(111.35210373594487,0)"><line stroke="#000" y2="-300" x1="0.5" x2="0.5" style="stroke: #ccc; fill: none;"></line></g><g class="tick" opacity="1" transform="translate(144.009339862169,0)"><line stroke="#000" y2="-300" x1="0.5" x2="0.5" style="stroke: #ccc; fill: none;"></line></g><g class="tick" opacity="1" transform="translate(176.57734856728328,0)"><line stroke="#000" y2="-300" x1="0.5" x2="0.5" style="stroke: #ccc; fill: none;"></line></g><g class="tick" opacity="1" transform="translate(209.14535727239755,0)"><line stroke="#000" y2="-300" x1="0.5" x2="0.5" style="stroke: #ccc; fill: none;"></line></g><g class="tick" opacity="1" transform="translate(241.71336597751178,0)"><line stroke="#000" y2="-300" x1="0.5" x2="0.5" style="stroke: #ccc; fill: none;"></line></g><g class="tick" opacity="1" transform="translate(274.37060210373596,0)"><line stroke="#000" y2="-300" x1="0.5" x2="0.5" style="stroke: #ccc; fill: none;"></line></g><g class="tick" opacity="1" transform="translate(306.9386108088502,0)"><line stroke="#000" y2="-300" x1="0.5" x2="0.5" style="stroke: #ccc; fill: none;"></line></g><g class="tick" opacity="1" transform="translate(339.50661951396444,0)"><line stroke="#000" y2="-300" x1="0.5" x2="0.5" style="stroke: #ccc; fill: none;"></line></g><g class="tick" opacity="1" transform="translate(372.0783460282916,0)"><line stroke="#000" y2="-300" x1="0.5" x2="0.5" style="stroke: #ccc; fill: none;"></line></g><g class="tick" opacity="1" transform="translate(404.7355821545158,0)"><line stroke="#000" y2="-300" x1="0.5" x2="0.5" style="stroke: #ccc; fill: none;"></line></g></g><text x="205" y="360" class="axis-label x-axis-label" style="text-anchor: middle; font-weight: bold;">Year</text><g fill="none" font-size="10" font-family="sans-serif" text-anchor="end"><path class="domain" stroke="#000" d="M-6,300.5H0.5V0.5H-6"></path><g class="tick" opacity="1" transform="translate(0,300)"><line stroke="#000" x2="-6" y1="0.5" y2="0.5"></line><text fill="#000" x="-9" y="0.5" dy="0.32em" style="font-size: 12px;">0.00%</text></g><g class="tick" opacity="1" transform="translate(0,264.70588235294116)"><line stroke="#000" x2="-6" y1="0.5" y2="0.5"></line><text fill="#000" x="-9" y="0.5" dy="0.32em" style="font-size: 12px;">2.00%</text></g><g class="tick" opacity="1" transform="translate(0,229.41176470588235)"><line stroke="#000" x2="-6" y1="0.5" y2="0.5"></line><text fill="#000" x="-9" y="0.5" dy="0.32em" style="font-size: 12px;">4.00%</text></g><g class="tick" opacity="1" transform="translate(0,194.11764705882354)"><line stroke="#000" x2="-6" y1="0.5" y2="0.5"></line><text fill="#000" x="-9" y="0.5" dy="0.32em" style="font-size: 12px;">6.00%</text></g><g class="tick" opacity="1" transform="translate(0,158.8235294117647)"><line stroke="#000" x2="-6" y1="0.5" y2="0.5"></line><text fill="#000" x="-9" y="0.5" dy="0.32em" style="font-size: 12px;">8.00%</text></g><g class="tick" opacity="1" transform="translate(0,123.52941176470588)"><line stroke="#000" x2="-6" y1="0.5" y2="0.5"></line><text fill="#000" x="-9" y="0.5" dy="0.32em" style="font-size: 12px;">10.00%</text></g><g class="tick" opacity="1" transform="translate(0,88.23529411764707)"><line stroke="#000" x2="-6" y1="0.5" y2="0.5"></line><text fill="#000" x="-9" y="0.5" dy="0.32em" style="font-size: 12px;">12.00%</text></g><g class="tick" opacity="1" transform="translate(0,52.9411764705882)"><line stroke="#000" x2="-6" y1="0.5" y2="0.5"></line><text fill="#000" x="-9" y="0.5" dy="0.32em" style="font-size: 12px;">14.00%</text></g><g class="tick" opacity="1" transform="translate(0,17.64705882352939)"><line stroke="#000" x2="-6" y1="0.5" y2="0.5"></line><text fill="#000" x="-9" y="0.5" dy="0.32em" style="font-size: 12px;">16.00%</text></g></g><g class="grid-lines" fill="none" font-size="10" font-family="sans-serif" text-anchor="end"><path class="domain" stroke="#000" d="M410,300.5H0.5V0.5H410"></path><g class="tick" opacity="1" transform="translate(0,300)"><line stroke="#000" x2="410" y1="0.5" y2="0.5" style="stroke: #ccc; fill: none;"></line></g><g class="tick" opacity="1" transform="translate(0,264.70588235294116)"><line stroke="#000" x2="410" y1="0.5" y2="0.5" style="stroke: #ccc; fill: none;"></line></g><g class="tick" opacity="1" transform="translate(0,229.41176470588235)"><line stroke="#000" x2="410" y1="0.5" y2="0.5" style="stroke: #ccc; fill: none;"></line></g><g class="tick" opacity="1" transform="translate(0,194.11764705882354)"><line stroke="#000" x2="410" y1="0.5" y2="0.5" style="stroke: #ccc; fill: none;"></line></g><g class="tick" opacity="1" transform="translate(0,158.8235294117647)"><line stroke="#000" x2="410" y1="0.5" y2="0.5" style="stroke: #ccc; fill: none;"></line></g><g class="tick" opacity="1" transform="translate(0,123.52941176470588)"><line stroke="#000" x2="410" y1="0.5" y2="0.5" style="stroke: #ccc; fill: none;"></line></g><g class="tick" opacity="1" transform="translate(0,88.23529411764707)"><line stroke="#000" x2="410" y1="0.5" y2="0.5" style="stroke: #ccc; fill: none;"></line></g><g class="tick" opacity="1" transform="translate(0,52.9411764705882)"><line stroke="#000" x2="410" y1="0.5" y2="0.5" style="stroke: #ccc; fill: none;"></line></g><g class="tick" opacity="1" transform="translate(0,17.64705882352939)"><line stroke="#000" x2="410" y1="0.5" y2="0.5" style="stroke: #ccc; fill: none;"></line></g></g><g class="lines"><path class="line" d="M2.766050054406964,218.92097650104705L5.4428726877040265,211.39807723644705L8.205204932898077,218.50231612671178L10.88202756619514,207.4470440623059L13.648077620602104,211.15897159780587L16.41412767500907,203.98638794361176L18.91621327529924,212.45288716731176L21.682263329706203,212.2660427807647L24.359085963003263,201.01289664494118L27.125136017410227,201.93279110488237L29.801958650707288,203.6703801530647L32.56800870511425,198.99796109391178L35.33405875952122,205.3321466138118L38.010881392818284,199.85121405088236L40.773213638012336,196.9558719421235L43.45003627130939,191.42591452304117L46.216086325716354,196.3263971478353L48.98213638012332,195.21352080190587L51.484221980413494,198.43859832114705L54.250272034820455,193.3643821417412L56.92709466811752,189.69306391445298L59.69314472252448,189.4728960607765L62.36996735582155,186.8673503142706L65.1360174102285,188.45479738231768L67.90206746463548,183.98147494485883L70.57889009793253,185.51094034387057L73.34122234312659,184.15876653465884L76.01804497642364,173.76009060501178L78.78409503083061,179.69678090225295L81.55014508523757,180.48396616171766L84.05223068552775,181.07191598161765L86.81828073993472,172.55879728408235L89.49510337323177,170.9440569314647L92.26115342763873,162.67603118011766L94.9379760609358,157.39839217992355L97.70402611534276,152.95217522334704L100.47007616974973,157.87254738305293L103.1468988030468,159.79173375776472L105.90923104824084,159.0409136627647L108.5860536815379,157.75481619564707L111.35210373594487,153.87039605292355L114.11815379035183,157.36592996901177L116.70946681175191,158.28464351474116L119.47551686615887,153.48964760730001L122.15233949945593,148.41072579266472L124.9183895538629,147.9109908485118L127.59521218715994,146.44209706955294L130.36126224156692,144.25123725945886L133.1273122959739,150.39871354501764L135.80413492927096,153.1086447521118L138.566467174465,152.08143998481177L141.24328980776207,146.2855392702353L144.009339862169,144.84470787672353L146.775389916576,142.1789865250765L149.27747551686616,143.90407054704707L152.04352557127314,141.54449627431762L154.7203482045702,139.9774960060765L157.48639825897715,136.4582325401471L160.1632208922742,131.25768578352356L162.92927094668119,124.74447523129413L165.69532100108813,110.61037977031768L168.3721436343852,110.20455082478827L171.13447587957927,114.19515410880004L173.8112985128763,107.01478167259415L176.57734856728328,102.02610815149413L179.34339862169026,100.65331659254119L181.84548422198043,106.9224848606294L184.61153427638737,104.84337329735297L187.28835690968444,101.01034396598826L190.0544069640914,100.5314241429L192.73122959738848,98.70138712900592L195.49727965179542,99.92013944272941L198.2633297062024,106.59154564012943L200.94015233949946,106.15728466835293L203.7024845846935,108.76043679180003L206.37930721799057,106.07865264435884L209.14535727239755,101.97362063968237L211.9114073268045,103.04401186701176L214.41349292709464,107.92646817908823L217.17954298150164,104.3084379306706L219.85636561479868,87.9910243585941L222.62241566920565,86.07853408740002L225.29923830250272,81.92391128223531L228.0652883569097,83.06761287405882L230.83133841131666,86.11287960518825L233.50816104461373,92.01252479553531L236.27049328980775,87.85076242895295L238.94731592310484,82.73819724838236L241.71336597751178,79.00384643654121L244.47941603191876,87.81907567334122L247.07072905331881,87.49485931475297L249.8367791077258,87.97173678566475L252.51360174102285,83.9505015116647L255.27965179542983,86.16813058612942L257.9564744287269,76.68525920431765L260.72252448313384,77.9086018261412L263.4885745375408,87.7895827934824L266.1653971708379,92.3708337123706L268.9277294160319,91.53732342640592L271.60455204932896,82.68653880585882L274.37060210373596,84.28386974712356L277.1366521581429,84.61335324081176L279.6387377584331,90.51052302195885L282.40478781284,88.18072615881181L285.0816104461371,86.24998212075883L287.84766050054407,84.3987470898L290.52448313384116,85.87432999132943L293.2905331882481,85.59301382214704L296.05658324265505,91.40255174336471L298.7334058759521,91.87633404227648L301.4957381211462,95.40160601004706L304.1725607544432,91.86430170765883L306.9386108088502,89.70935927064707L309.7046608632572,99.54923370504707L312.20674646354735,102.53318818240592L314.9727965179543,103.01365161545297L317.64961915125133,107.7545547845647L320.41566920565833,101.51168760252352L323.09249183895537,100.8960459432883L325.85854189336237,98.48652420984706L328.6245919477693,101.96462976702355L331.3014145810664,105.82001071150589L334.0674646354733,106.73443365762353L336.7405694595575,106.69033845527647L339.50661951396444,108.23403367291766L342.27266956837144,108.05468488796473L344.7747551686616,107.2582141171412L347.54080522306856,111.28881107285298L350.21762785636565,109.14299299448825L352.98367791077254,104.72479440538237L355.66050054406963,108.01979671120588L358.4265505984766,100.93687436424713L361.1926006528836,105.17647058823533L363.8694232861806,112.9812210683647L366.6354733405876,110.56009190202357L369.31229597388466,107.46101428824707L372.0783460282916,105.19614236195298L374.84439608269855,106.47836873707058L377.43199129488573,100.75171512374118L380.1980413492927,101.90157473899413L382.8748639825898,101.82727768048235L385.6409140369967,100.29037974333534L388.31773667029375,91.99763682802944L391.08378672470076,90.73653654038824L393.84983677910776,95.24306736547058L396.5266594124048,99.63303825321177L399.29270946681174,101.37018896315294L401.96953210010884,93.30584167021766L404.7355821545158,92.33945141643531L407.50163220892273,99.32224344045886L410,105.20138711848236" data-legend="javascript" style="stroke: rgb(31, 119, 180); fill: none;"></path><path class="line" d="M2.766050054406964,155.85951377962945L5.4428726877040265,159.0923904187765L8.205204932898077,165.38830836102355L10.88202756619514,177.48173296923528L13.648077620602104,170.88885897608824L16.41412767500907,177.65354075514708L18.91621327529924,174.64647227239413L21.682263329706203,171.8248663101706L24.359085963003263,174.41831549232353L27.125136017410227,166.85030211672353L29.801958650707288,175.86502496620588L32.56800870511425,180.7131092229706L35.33405875952122,177.9297138387706L38.010881392818284,177.2638410946588L40.773213638012336,172.2012206125412L43.45003627130939,173.2359852721412L46.216086325716354,152.53903417288237L48.98213638012332,158.07601814025884L51.484221980413494,148.7462983034647L54.250272034820455,161.94876236657646L56.92709466811752,157.32223389492356L59.69314472252448,163.3147085905765L62.36996735582155,168.0119086999765L65.1360174102285,168.6883518297353L67.90206746463548,163.0058826430765L70.57889009793253,160.1152864405412L73.34122234312659,157.27524227025884L76.01804497642364,155.13913003552943L78.78409503083061,154.99759437905294L81.55014508523757,153.00532893105884L84.05223068552775,151.03691027027648L86.81828073993472,153.68067756210002L89.49510337323177,148.74050436305293L92.26115342763873,158.6213302277118L94.9379760609358,156.41408427434118L97.70402611534276,156.44977859511178L100.47007616974973,155.4292444302353L103.1468988030468,150.53171020371178L105.90923104824084,143.27244411278824L108.5860536815379,142.93050978575295L111.35210373594487,145.4884044044824L114.11815379035183,143.36372615629415L116.70946681175191,135.84869240405297L119.47551686615887,134.7867818456118L122.15233949945593,139.5996896411294L124.9183895538629,149.62867018709997L127.59521218715994,147.01591214144122L130.36126224156692,146.40571588189417L133.1273122959739,144.19769334550588L135.80413492927096,140.29436589416474L138.566467174465,136.88145849608824L141.24328980776207,137.2019360901882L144.009339862169,145.55323088366472L146.775389916576,141.2297220121412L149.27747551686616,137.5207381824353L152.04352557127314,132.17863495928825L154.7203482045702,137.3661835030941L157.48639825897715,143.97213269719416L160.1632208922742,147.5540462630118L162.92927094668119,143.26615147238826L165.69532100108813,126.08380586606472L168.3721436343852,120.03295292714122L171.13447587957927,111.65426733931767L173.8112985128763,113.15618972544706L176.57734856728328,124.87751391155297L179.34339862169026,118.28497822487645L181.84548422198043,112.69296915922939L184.61153427638737,109.78485079005884L187.28835690968444,119.49517496205883L190.0544069640914,126.65760698493531L192.73122959738848,126.33236690779412L195.49727965179542,129.4411813313647L198.2633297062024,121.74978166822942L200.94015233949946,116.46339032024122L203.7024845846935,110.12832720787063L206.37930721799057,112.99750595064708L209.14535727239755,123.33118289348826L211.9114073268045,123.30961359342353L214.41349292709464,115.09798429727647L217.17954298150164,114.51120826752356L219.85636561479868,122.60862927453533L222.62241566920565,131.16825130507058L225.29923830250272,130.01746108138235L228.0652883569097,132.65913830938234L230.83133841131666,130.61576285077058L233.50816104461373,123.16592372588823L236.27049328980775,122.6815313331L238.94731592310484,129.48305764447062L241.71336597751178,136.6464953328353L244.47941603191876,131.43907024441765L247.07072905331881,124.31405425921767L249.8367791077258,123.79567687752353L252.51360174102285,139.9345071532059L255.27965179542983,146.30292044700002L257.9564744287269,149.62650265492942L260.72252448313384,151.25414419600588L263.4885745375408,147.6185540295529L266.1653971708379,144.13102165332353L268.9277294160319,140.86679115195884L271.60455204932896,148.0614433486941L274.37060210373596,153.06948907431178L277.1366521581429,151.7502831228353L279.6387377584331,146.89693767395298L282.40478781284,141.08575633547647L285.0816104461371,143.94989995567062L287.84766050054407,153.99452425427648L290.52448313384116,159.7732197100765L293.2905331882481,161.86895100028238L296.05658324265505,159.80846928317646L298.7334058759521,153.27495937958824L301.4957381211462,150.47202464135296L304.1725607544432,153.13898144712354L306.9386108088502,162.80230689792353L309.7046608632572,159.8657618283706L312.20674646354735,160.15212029368237L314.9727965179543,151.84400866051766L317.64961915125133,156.61538940991767L320.41566920565833,163.57894251088234L323.09249183895537,168.40650967441763L325.85854189336237,172.07864802554118L328.6245919477693,166.42865910960003L331.3014145810664,160.1452289739L334.0674646354733,159.38178101392944L336.7405694595575,157.8036793012765L339.50661951396444,167.17766206526474L342.27266956837144,165.0221526676412L344.7747551686616,165.29013203932942L347.54080522306856,169.2291969564353L350.21762785636565,167.94853547258825L352.98367791077254,172.6959635295L355.66050054406963,171.1288570561059L358.4265505984766,180.78500482692354L361.1926006528836,172.8370832203941L363.8694232861806,168.50661669848827L366.6354733405876,175.6826852540118L369.31229597388466,178.09487175474703L372.0783460282916,178.51710681185295L374.84439608269855,176.16034684401177L377.43199129488573,173.22670608322943L380.1980413492927,177.23151091032352L382.8748639825898,184.4846680156059L385.6409140369967,188.82332175045883L388.31773667029375,189.14525942657647L391.08378672470076,188.7943084386706L393.84983677910776,187.21327475112355L396.5266594124048,187.2067778273294L399.29270946681174,187.50922256544706L401.96953210010884,195.44908186475294L404.7355821545158,198.1717025293059L407.50163220892273,197.38721534777648L410,196.1688377507647" data-legend="java" style="stroke: rgb(255, 127, 14); fill: none;"></path><path class="line" d="M2.766050054406964,238.96868497184118L5.4428726877040265,224.8411275867706L8.205204932898077,229.18132297907647L10.88202756619514,228.99845007012354L13.648077620602104,228.545789025L16.41412767500907,222.21682061255297L18.91621327529924,221.42537733822354L21.682263329706203,219.2847593583L24.359085963003263,218.3511820197706L27.125136017410227,200.54712726693532L29.801958650707288,188.3939201887412L32.56800870511425,181.03962443495294L35.33405875952122,177.71394665156473L38.010881392818284,184.31933286405885L40.773213638012336,175.53268770735883L43.45003627130939,166.68572577504705L46.216086325716354,164.00997840298237L48.98213638012332,174.34351396425882L51.484221980413494,172.3850036506941L54.250272034820455,170.43275459964707L56.92709466811752,163.47508437381177L59.69314472252448,169.4639536353353L62.36996735582155,165.53092954020002L65.1360174102285,156.58872225310589L67.90206746463548,163.67315598047648L70.57889009793253,174.27343303067647L73.34122234312659,169.63401882781764L76.01804497642364,162.33243261169412L78.78409503083061,157.14824167955294L81.55014508523757,156.27710441454707L84.05223068552775,157.37763369822352L86.81828073993472,157.97873818574118L89.49510337323177,156.80650080483528L92.26115342763873,156.06704724889414L94.9379760609358,146.74677448745297L97.70402611534276,152.16026502594704L100.47007616974973,159.7093566951L103.1468988030468,158.83259760810003L105.90923104824084,158.6191233250059L108.5860536815379,157.43106697519414L111.35210373594487,157.77996384538235L114.11815379035183,157.7370383269412L116.70946681175191,155.48180224457647L119.47551686615887,156.8490333196235L122.15233949945593,155.80147551979417L124.9183895538629,156.52643760970588L127.59521218715994,153.27798096930002L130.36126224156692,150.63951689574705L133.1273122959739,152.4612559008L135.80413492927096,160.21324031818236L138.566467174465,158.50851877178823L141.24328980776207,154.7408817115941L144.009339862169,154.8877403401941L146.775389916576,154.34577924584116L149.27747551686616,155.45729030601177L152.04352557127314,160.9370955572647L154.7203482045702,160.1249396266765L157.48639825897715,157.09075481389414L160.1632208922742,155.79220640724702L162.92927094668119,150.30127555724118L165.69532100108813,147.11999258299414L168.3721436343852,152.1428981971765L171.13447587957927,149.78757586399414L173.8112985128763,144.8654736649941L176.57734856728328,141.7311263364L179.34339862169026,143.36174511515296L181.84548422198043,143.12611241878238L184.61153427638737,138.2006131059L187.28835690968444,150.87034830947647L190.0544069640914,157.37513812035883L192.73122959738848,156.61384817278235L195.49727965179542,156.3806172882706L198.2633297062024,156.88497717755297L200.94015233949946,159.90648845011768L203.7024845846935,160.78268780924117L206.37930721799057,158.4821386236353L209.14535727239755,153.81153620982354L211.9114073268045,156.8787888454765L214.41349292709464,159.88965128775885L217.17954298150164,159.3361882836L219.85636561479868,160.1078540043L222.62241566920565,163.59888891894707L225.29923830250272,159.6916256944059L228.0652883569097,160.0981537620706L230.83133841131666,164.57638980084707L233.50816104461373,166.9938270469412L236.27049328980775,166.7275265244706L238.94731592310484,157.79115282052942L241.71336597751178,156.56956660215886L244.47941603191876,158.81938230771178L247.07072905331881,166.21449184492943L249.8367791077258,168.9343829494059L252.51360174102285,163.9410489358412L255.27965179542983,167.9869259620059L257.9564744287269,169.72050911514708L260.72252448313384,173.53373330703533L263.4885745375408,173.60456076704116L266.1653971708379,175.16481524629413L268.9277294160319,178.3307963731765L271.60455204932896,173.9417501269765L274.37060210373596,172.6434509750294L277.1366521581429,172.64297068219412L279.6387377584331,175.46970289445295L282.40478781284,175.89772424394704L285.0816104461371,175.37923877302944L287.84766050054407,182.31769102175295L290.52448313384116,183.11960793111177L293.2905331882481,182.83831527054707L296.05658324265505,182.3251428141L298.7334058759521,186.39528750822353L301.4957381211462,188.11189792605882L304.1725607544432,187.76504847241767L306.9386108088502,187.19251471402941L309.7046608632572,193.39431358861765L312.20674646354735,198.25595857092355L314.9727965179543,201.7587545228647L317.64961915125133,198.9848193916412L320.41566920565833,202.27291518052942L323.09249183895537,204.10991020561767L325.85854189336237,203.79784180688824L328.6245919477693,204.4493810394L331.3014145810664,208.14763850661177L334.0674646354733,214.49549058870002L336.7405694595575,214.97221235152944L339.50661951396444,213.1601133449118L342.27266956837144,209.92178343630002L344.7747551686616,212.79784152709414L347.54080522306856,214.96369084577648L350.21762785636565,216.5601788057647L352.98367791077254,219.9717450109059L355.66050054406963,220.2802029757765L358.4265505984766,223.43028190459412L361.1926006528836,226.5752236378588L363.8694232861806,228.60853778844705L366.6354733405876,226.30959171282353L369.31229597388466,229.29905110355293L372.0783460282916,228.1447280494412L374.84439608269855,229.96325058600002L377.43199129488573,235.26141358789414L380.1980413492927,235.83987506606474L382.8748639825898,237.9870915040059L385.6409140369967,238.96487754905294L388.31773667029375,238.16486726971766L391.08378672470076,241.27464981898237L393.84983677910776,240.78041492511176L396.5266594124048,242.85672514314706L399.29270946681174,239.32995950608236L401.96953210010884,237.7665181130647L404.7355821545158,239.33276523310587L407.50163220892273,240.94466459881764L410,241.7631393845294" data-legend="php" style="stroke: rgb(44, 160, 44); fill: none;"></path><path class="line" d="M2.766050054406964,231.3556311221647L5.4428726877040265,237.67313019391764L8.205204932898077,236.4880118780647L10.88202756619514,234.90294486679414L13.648077620602104,229.21882711895296L16.41412767500907,236.19348565874117L18.91621327529924,233.44677193614706L21.682263329706203,235.74532085562353L24.359085963003263,230.9922426715412L27.125136017410227,234.1809676972412L29.801958650707288,236.2564979906294L32.56800870511425,238.07094812761767L35.33405875952122,237.10386492974118L38.010881392818284,230.37601524771176L40.773213638012336,227.9107536981706L43.45003627130939,225.07257122032945L46.216086325716354,222.90734377761174L48.98213638012332,226.0424092293706L51.484221980413494,229.5260467921765L54.250272034820455,235.5358581789L56.92709466811752,231.32735215498235L59.69314472252448,229.65008777809413L62.36996735582155,224.2279776614647L65.1360174102285,230.49682826147648L67.90206746463548,234.6942485873647L70.57889009793253,225.73231552918236L73.34122234312659,233.49194471084118L76.01804497642364,236.63771773344706L78.78409503083061,235.61361071511175L81.55014508523757,235.52677723701177L84.05223068552775,234.11619507414707L86.81828073993472,238.04864342461764L89.49510337323177,237.89006241L92.26115342763873,237.9291374025706L94.9379760609358,235.56298603865295L97.70402611534276,236.76267111310588L100.47007616974973,238.9694113488353L103.1468988030468,236.73189180015885L105.90923104824084,237.1045715583706L108.5860536815379,238.23205662545294L111.35210373594487,235.8800457384L114.11815379035183,235.84107427305884L116.70946681175191,233.27386844098237L119.47551686615887,232.4694912930353L122.15233949945593,232.87831564551175L124.9183895538629,228.57429459058235L127.59521218715994,228.52260082928825L130.36126224156692,226.48468002861176L133.1273122959739,229.59230412767647L135.80413492927096,227.42909787005294L138.566467174465,223.42560506698237L141.24328980776207,224.56944506253532L144.009339862169,226.00995456081176L146.775389916576,222.09085155974117L149.27747551686616,222.12538455499413L152.04352557127314,217.99966405438238L154.7203482045702,216.96875447825295L157.48639825897715,215.09181174684704L160.1632208922742,213.66928052735295L162.92927094668119,217.4773719073059L165.69532100108813,214.93878299160002L168.3721436343852,208.80469004452942L171.13447587957927,204.77676709171766L173.8112985128763,209.5421772215647L176.57734856728328,207.91238488270588L179.34339862169026,206.79066204167646L181.84548422198043,202.7516173361647L184.61153427638737,202.1043440574L187.28835690968444,207.0854515606412L190.0544069640914,202.97384776695884L192.73122959738848,200.9150872988294L195.49727965179542,201.32648457644117L198.2633297062024,206.4657056877L200.94015233949946,201.92840732839412L203.7024845846935,198.27773053196472L206.37930721799057,196.9341210609706L209.14535727239755,196.55863311601763L211.9114073268045,192.46716260894118L214.41349292709464,191.44805251528237L217.17954298150164,192.89424808321763L219.85636561479868,192.7025999780647L222.62241566920565,188.39823338865884L225.29923830250272,187.99635300405882L228.0652883569097,190.0973622520059L230.83133841131666,190.38846103339415L233.50816104461373,180.8672710422L236.27049328980775,177.3658385126294L238.94731592310484,179.9913625863L241.71336597751178,178.7270010045L244.47941603191876,174.87056008526474L247.07072905331881,175.89262990852941L249.8367791077258,176.41688391594707L252.51360174102285,176.7882998117118L255.27965179542983,175.3049162625353L257.9564744287269,170.88596148984706L260.72252448313384,173.49459481057062L263.4885745375408,171.7906193314412L266.1653971708379,162.82840040188236L268.9277294160319,155.80773281700002L271.60455204932896,156.67725068784708L274.37060210373596,156.01816302645884L277.1366521581429,149.6782810508471L279.6387377584331,148.59170780751177L282.40478781284,144.0332227259118L285.0816104461371,145.43745361328826L287.84766050054407,139.9077643121471L290.52448313384116,132.3295848915353L293.2905331882481,134.69201308905883L296.05658324265505,130.2032133444L298.7334058759521,122.37171668297648L301.4957381211462,120.92640822352942L304.1725607544432,116.89784698461173L306.9386108088502,119.53687456170002L309.7046608632572,109.86928707181767L312.20674646354735,115.43003025732355L314.9727965179543,113.73705214194706L317.64961915125133,113.0241729568059L320.41566920565833,105.75718013156472L323.09249183895537,99.5340025209L325.85854189336237,99.62095713192355L328.6245919477693,101.52123942381175L331.3014145810664,97.57046166840004L334.0674646354733,84.59646124452357L336.7405694595575,86.71223202531178L339.50661951396444,96.39060944881766L342.27266956837144,85.43507079192358L344.7747551686616,78.7491803790706L347.54080522306856,68.87478258857647L350.21762785636565,76.42632473767057L352.98367791077254,72.57256543210588L355.66050054406963,65.70057004762941L358.4265505984766,64.27826334852355L361.1926006528836,78.9970181621118L363.8694232861806,60.49127599835299L366.6354733405876,51.881359362652944L369.31229597388466,55.81403150167063L372.0783460282916,56.586026661070576L374.84439608269855,53.36054062254709L377.43199129488573,41.92855358666469L380.1980413492927,39.05067100350004L382.8748639825898,28.816692946852925L385.6409140369967,28.396300859735334L388.31773667029375,26.96537736903531L391.08378672470076,33.33711205288239L393.84983677910776,36.65269693632354L396.5266594124048,23.097391062811766L399.29270946681174,16.17929502728822L401.96953210010884,14.817759860947092L404.7355821545158,19.419279980135343L407.50163220892273,20.94974225382356L410,22.17700196888825" data-legend="python" style="stroke: rgb(214, 39, 40); fill: none;"></path></g></g><g transform="translate(20, 150)"><text transform="rotate(-90)" x="-50" y="0" dy="1em" class="axis-label y-axis-label" style="text-anchor: middle; font-weight: bold;">% of Stack Overflow questions that month</text></g><g class="legend" transform="translate(530, 30)" style="font-size: 12px;"><text class="legend-title" style="font-weight: bold;">Tag</text><g class="legend-items" transform="translate(0,20)"><text y="0em" x="1em">python</text><text y="1em" x="1em">javascript</text><text y="2em" x="1em">java</text><text y="3em" x="1em">php</text><circle cy="-0.25em" cx="0" r="0.4em" style="fill: rgb(214, 39, 40);"></circle><circle cy="0.75em" cx="0" r="0.4em" style="fill: rgb(31, 119, 180);"></circle><circle cy="1.75em" cx="0" r="0.4em" style="fill: rgb(255, 127, 14);"></circle><circle cy="2.75em" cx="0" r="0.4em" style="fill: rgb(44, 160, 44);"></circle></g><rect class="legend-box"></rect></g></svg>
        